<?xml version="1.0" encoding="UTF-8" standalone="no"?>
<svg
   width="229.88159"
   height="200.29333"
   overflow="hidden"
   version="1.1"
   id="svg52"
   xmlns="http://www.w3.org/2000/svg"
   xmlns:svg="http://www.w3.org/2000/svg">
  <defs
     id="defs5">
    <clipPath
       id="clip1">
      <rect
         x="1047"
         y="404"
         width="233"
         height="57"
         id="rect2" />
    </clipPath>
    <clipPath
       id="clip2">
      <rect
         x="1047"
         y="404"
         width="233"
         height="57"
         id="rect3" />
    </clipPath>
    <clipPath
       id="clip3">
      <rect
         x="1047"
         y="404"
         width="233"
         height="57"
         id="rect4" />
    </clipPath>
    <clipPath
       id="clip4">
      <rect
         x="-1"
         y="259"
         width="1281"
         height="203"
         id="rect5" />
    </clipPath>
    <clipPath
       clipPathUnits="userSpaceOnUse"
       id="clipPath10">
      <rect
         style="fill:#ff0000;fill-opacity:0.401361"
         id="rect11"
         width="229.88159"
         height="200.29333"
         x="1049.3948"
         y="259.2291"
         ry="0" />
    </clipPath>
  </defs>
  <g
     clip-path="url(#clipPath10)"
     id="g52"
     transform="translate(-1049.3948,-259.2291)">
    <path
       d="m 1076,418.514 v 44.484 H 960.068 v -22.856 h -0.065 v -20.303 c 0.648,4.3 4.339,7.565 8.806,7.565 4.921,0 8.903,-3.976 8.903,-8.89 0,-4.914 -3.982,-8.891 -8.903,-8.891 -4.824,0 -2.298,-5.625 5.634,-5.625 8.029,0 14.536,6.498 14.536,14.516 v 1.325 c 0.648,4.3 4.338,7.565 8.806,7.565 4.925,0 8.905,-3.976 8.905,-8.89 0,-4.914 -3.98,-8.891 -8.905,-8.891 -4.824,0 -2.299,-5.625 5.635,-5.625 8.03,0 14.53,6.498 14.53,14.516 v 1.325 c 0.65,4.3 4.34,7.565 8.81,7.565 4.92,0 8.9,-3.976 8.9,-8.89 0,-4.914 -3.98,-8.891 -8.9,-8.891 -4.82,0 -2.3,-5.625 5.63,-5.625 8.03,0 14.54,6.498 14.54,14.516 v 1.325 c 0.65,4.3 4.34,7.565 8.81,7.565 4.92,0 8.9,-3.976 8.9,-8.89 0,-4.914 -3.98,-8.891 -8.9,-8.891 -4.83,0 -2.3,-5.625 5.63,-5.625 8.13,-0.032 14.63,6.498 14.63,14.516 z"
       fill="#ffffff"
       fill-rule="evenodd"
       id="path6" />
    <path
       d="M 0.00325449,258.998 H 1280 v 202 H 0.00325449 Z"
       fill-rule="evenodd"
       id="path7" />
    <path
       d="m 1047,418.514 v 44.484 H 931.068 v -22.856 h -0.065 v -20.303 c 0.648,4.3 4.339,7.565 8.806,7.565 4.921,0 8.903,-3.976 8.903,-8.89 0,-4.914 -3.982,-8.891 -8.903,-8.891 -4.824,0 -2.298,-5.625 5.634,-5.625 8.029,0 14.536,6.498 14.536,14.516 v 1.325 c 0.648,4.3 4.338,7.565 8.806,7.565 4.921,0 8.903,-3.976 8.903,-8.89 0,-4.914 -3.982,-8.891 -8.903,-8.891 -4.824,0 -2.299,-5.625 5.633,-5.625 8.029,0 14.537,6.498 14.537,14.516 v 1.325 c 0.647,4.3 4.338,7.565 8.806,7.565 4.919,0 8.899,-3.976 8.899,-8.89 0,-4.914 -3.98,-8.891 -8.899,-8.891 -4.824,0 -2.299,-5.625 5.629,-5.625 8.03,0 14.54,6.498 14.54,14.516 v 1.325 c 0.65,4.3 4.34,7.565 8.81,7.565 4.92,0 8.9,-3.976 8.9,-8.89 0,-4.914 -3.98,-8.891 -8.9,-8.891 -4.83,0 -2.3,-5.625 5.63,-5.625 8.13,-0.032 14.63,6.498 14.63,14.516 z"
       fill="#ffffff"
       fill-rule="evenodd"
       id="path8" />
    <path
       d="m 1239,398.685 v 12.273 c 0,3.148 -2.57,5.687 -5.76,5.687 h -4.62 v 8.353 c -2.11,0 -4.1,-0.675 -5.73,-1.831 -1.62,-1.157 -2.89,-2.828 -3.54,-4.82 l -0.56,-1.702 h -80.77 c -11.26,0 -22.43,-1.735 -33.13,-5.173 -3.26,-1.028 -4.89,-3.856 -4.89,-6.651 0,-2.795 1.63,-5.59 4.89,-6.65 5.33,-1.703 10.83,-2.988 16.37,-3.856 4.32,-0.674 18.81,-1.092 23.2,-1.253 v 3.02 c 0,6.073 5.01,10.988 11.13,10.988 h 4.56 c 6.15,0 11.13,-4.948 11.13,-10.988 v -3.084 h 32.8 v 3.084 c 0,6.073 5.01,10.988 11.13,10.988 h 4.56 c 6.15,0 11.13,-4.948 11.13,-10.988 v -3.084 h 2.31 c 3.22,0 5.79,2.538 5.79,5.687 z"
       fill="#ffffff"
       fill-rule="evenodd"
       id="path9" />
    <path
       d="m 1146,427.989 c 0.34,-0.333 0.67,-0.666 1,-1 -0.33,0.334 -0.66,0.667 -1,1 z"
       fill-rule="evenodd"
       id="path10" />
    <path
       d="m 1153,418.998 c -0.22,3.757 -3.07,6.866 -7,8 3.89,-1.134 6.74,-4.275 7,-8 z"
       fill-rule="evenodd"
       id="path11" />
    <path
       d="m 1201.2,308.453 c -3.79,-15.033 -17.36,-26.227 -33.61,-26.454 v 3.384 c 4.77,1.041 8.37,5.304 8.37,10.38 0,5.076 -3.6,9.339 -8.37,10.38 v 12.398 c 0,11.356 -9.15,20.63 -20.4,20.63 -0.36,0 -0.75,0 -1.11,-0.033 -4.41,-0.26 -8.6,-1.919 -11.9,-4.685 l -2.32,-1.855 v 4.848 c 0,11.812 5.85,22.225 14.81,28.57 v 30.164 c 0,4.881 3.99,8.819 8.86,8.819 h 4.57 c 4.91,0 8.86,-3.97 8.86,-8.819 v -15.131 h 37.6 v 15.131 c 0,4.881 3.99,8.819 8.86,8.819 h 4.58 c 4.9,0 8.86,-3.97 8.86,-11.096 v -50.437 c 0.03,-15.294 -11.61,-30.132 -27.66,-35.013 z m -17.85,64.754 c -0.23,0.228 -0.52,0.326 -0.82,0.326 -0.29,0 -0.59,-0.098 -0.82,-0.326 l -9.18,-9.143 c -0.46,-0.456 -0.46,-1.172 0,-1.627 0.46,-0.456 1.17,-0.456 1.63,0 l 9.19,9.143 c 0.46,0.424 0.46,1.172 0,1.627 z m 9.19,0 c -0.23,0.228 -0.53,0.326 -0.82,0.326 -0.3,0 -0.59,-0.098 -0.82,-0.326 l -9.19,-9.143 c -0.45,-0.456 -0.45,-1.172 0,-1.627 0.46,-0.456 1.18,-0.456 1.64,0 l 9.19,9.143 c 0.45,0.424 0.45,1.172 0,1.627 z m 9.22,0 c -0.23,0.228 -0.53,0.326 -0.82,0.326 -0.3,0 -0.59,-0.098 -0.82,-0.326 l -9.22,-9.143 c -0.46,-0.456 -0.46,-1.172 0,-1.627 0.46,-0.456 1.18,-0.456 1.64,0 l 9.18,9.143 c 0.46,0.424 0.46,1.172 0.04,1.627 z"
       fill="#ffffff"
       fill-rule="evenodd"
       id="path12" />
    <path
       d="m 1125.13,348.934 c 1.18,1.161 1.75,2.667 1.75,4.173 0,1.506 -0.57,3.012 -1.75,4.173 -2.32,2.29 -6.1,2.29 -8.45,0 l -10.17,-10.04 c -1.9,-1.882 -3.46,-3.984 -4.63,-6.243 l 16.48,1.255 z"
       fill="#ffffff"
       fill-rule="evenodd"
       id="path13" />
    <path
       d="m 1146.91,336.998 c -0.51,0 -1.03,-0.035 -1.51,-0.069 v 0 c 0.16,0 0.36,0.034 0.52,0.034 0.35,0.035 0.67,0.035 0.99,0.035 0.16,0 0.36,0 0.52,0 0.16,0 0.32,0 0.48,-0.035 0.1,0 0.23,0 0.32,-0.034 0.1,0 0.23,-0.035 0.36,-0.035 0.12,0 0.25,-0.034 0.41,-0.034 -0.67,0.069 -1.38,0.138 -2.09,0.138 z m -3.73,-0.414 v 0 c -0.09,-0.035 -0.19,-0.035 -0.25,-0.069 0.06,0 0.16,0.034 0.25,0.069 z m -0.99,-0.276 c 0.13,0.035 0.22,0.069 0.35,0.104 0.13,0.034 0.26,0.069 0.39,0.103 -0.29,-0.069 -0.58,-0.138 -0.84,-0.241 0.03,0 0.06,0.034 0.1,0.034 z m -1.1,-0.379 c 0.04,0 0.1,0.034 0.16,0.034 -0.12,-0.034 -0.29,-0.103 -0.41,-0.172 0.06,0.069 0.16,0.103 0.25,0.138 z m -0.48,-0.173 c 0.07,0.035 0.13,0.069 0.23,0.069 -0.13,-0.034 -0.26,-0.103 -0.39,-0.138 0.03,0.035 0.1,0.035 0.16,0.069 z m -1.09,-0.482 c 0.03,0 0.06,0.034 0.09,0.034 -0.12,-0.069 -0.25,-0.138 -0.38,-0.207 0.09,0.069 0.19,0.104 0.29,0.173 z m -0.39,-0.207 c 0.03,0 0.07,0.034 0.1,0.034 -0.07,-0.034 -0.16,-0.069 -0.23,-0.103 0.04,0.034 0.1,0.034 0.13,0.069 z"
       fill="#ffffff"
       fill-rule="evenodd"
       id="path14" />
    <path
       d="m 1165.6,287.279 v -8.543 c 0,-4.825 -3.89,-8.738 -8.69,-8.738 h -1.75 v 13.433 c 0,0.685 -0.62,1.239 -1.36,1.109 -0.52,-0.098 -0.91,-0.587 -0.91,-1.141 v -13.401 h -7.65 v 13.466 c 0,0.619 -0.52,1.141 -1.14,1.141 -0.61,0 -1.13,-0.522 -1.13,-1.141 v -13.466 h -2.24 c -4.8,0 -8.69,3.913 -8.69,8.738 v 5.869 l -25.07,25.204 c -6,6.032 -8.5,14.184 -7.56,22.041 h 15.99 c 0.55,-2.771 2.17,-5.347 4.8,-7.01 l 0.91,-0.587 v 5.511 c 0,2.413 -1.95,4.402 -4.38,4.402 h -25.68 c -1.14,0 -2.05,0.912 -2.05,2.054 0,1.076 0.85,1.989 1.92,2.054 l 28.83,1.695 c 5.45,0.424 10.12,-3.912 10.12,-9.423 v -10.27 c 0,0.065 0,0.163 0.03,0.228 0,0.032 0,0.065 0,0.098 0,0.065 0,0.163 0.03,0.228 0,0.13 0.03,0.261 0.07,0.424 0,0.098 0.03,0.195 0.03,0.261 0.06,0.358 0.13,0.717 0.19,1.043 0.03,0.196 0.1,0.391 0.13,0.587 0,0 0,0 0,0.032 0.16,0.587 0.33,1.174 0.55,1.761 0,0 0,0 0,0.033 0.07,0.163 0.13,0.358 0.2,0.522 0,0.032 0.03,0.065 0.03,0.097 0.07,0.163 0.13,0.326 0.23,0.522 0.09,0.196 0.16,0.326 0.22,0.489 0.04,0.033 0.04,0.098 0.07,0.131 0.06,0.163 0.16,0.293 0.23,0.456 0,0 0,0.033 0.03,0.033 0.1,0.163 0.19,0.358 0.29,0.521 0.07,0.131 0.16,0.261 0.23,0.392 0.03,0.065 0.06,0.098 0.09,0.163 0.1,0.13 0.17,0.293 0.26,0.424 0.1,0.163 0.2,0.293 0.3,0.423 0.09,0.131 0.16,0.229 0.26,0.359 0.06,0.065 0.13,0.163 0.16,0.228 0.1,0.131 0.19,0.261 0.29,0.359 0.06,0.098 0.16,0.196 0.23,0.261 0.16,0.195 0.35,0.391 0.52,0.587 0.09,0.098 0.19,0.195 0.26,0.293 0.03,0.033 0.06,0.065 0.09,0.098 0.78,0.783 1.59,1.5 2.5,2.152 0.1,0.065 0.19,0.163 0.32,0.228 0.13,0.098 0.26,0.163 0.36,0.261 0.45,0.293 0.91,0.554 1.36,0.815 0.1,0.065 0.2,0.098 0.29,0.163 0.07,0.033 0.17,0.065 0.23,0.098 0.13,0.065 0.26,0.13 0.39,0.196 0.26,0.13 0.55,0.228 0.84,0.358 0.13,0.033 0.26,0.098 0.39,0.131 0.13,0.065 0.29,0.098 0.42,0.163 0.3,0.098 0.56,0.195 0.85,0.261 0.06,0.032 0.16,0.032 0.22,0.065 v -12.618 c 0,-0.62 0.52,-1.142 1.14,-1.142 0.62,0 1.13,0.522 1.13,1.142 v 13.042 c 0.3,0.032 0.59,0.065 0.91,0.098 0.52,0.032 1.01,0.065 1.53,0.065 0.71,0 1.39,-0.033 2.07,-0.131 0,0 0.04,0 0.04,0 0.22,-0.032 0.45,-0.065 0.68,-0.097 0.13,-0.033 0.26,-0.033 0.39,-0.066 0.03,0 0.03,0 0.06,0 0.03,0 0.03,0 0.07,0 0.64,-0.13 1.29,-0.293 1.91,-0.489 v -12.39 c 0,-0.554 0.36,-1.043 0.91,-1.141 0.71,-0.131 1.36,0.424 1.36,1.109 v 11.542 c 6.03,-2.804 10.28,-8.869 10.44,-15.944 0,-0.033 0,-0.033 0,-0.065 0,-0.066 0,-0.131 0,-0.196 0,-0.163 0,-0.359 0,-0.522 V 303.94 c 4.57,0 8.3,-3.749 8.3,-8.347 -0.09,-4.565 -3.79,-8.314 -8.4,-8.314 z m -22.67,18.715 c -1.84,0 -3.4,-1.271 -3.82,-2.999 -0.07,-0.294 -0.1,-0.62 -0.1,-0.946 0,-2.184 1.75,-3.945 3.92,-3.945 1.76,0 3.22,1.141 3.73,2.706 0.13,0.391 0.2,0.815 0.2,1.239 0,2.152 -1.78,3.945 -3.93,3.945 z m 22.67,-6.325 v -8.086 c 2.21,0 4.02,1.793 4.02,4.043 0,2.25 -1.78,4.043 -4.02,4.043 z"
       fill="#ffffff"
       fill-rule="evenodd"
       id="path15" />
    <path
       d="m 1130.02,320.998 c 0.33,0.344 0.66,0.688 1,1 -0.34,-0.312 -0.67,-0.656 -1,-1 z"
       fill="#ffffff"
       fill-rule="evenodd"
       id="path16" />
    <path
       d="m 1130.01,322.998 c 0.29,0.666 0.58,1.333 1,2 -0.42,-0.667 -0.77,-1.334 -1,-2 z"
       fill="#ffffff"
       fill-rule="evenodd"
       id="path17" />
    <path
       d="m 1133.01,328.996 c 0.31,0.334 0.69,0.667 1,1 -0.16,-0.111 -0.31,-0.277 -0.39,-0.388 -0.15,-0.223 -0.38,-0.445 -0.61,-0.612 z"
       fill="#ffffff"
       fill-rule="evenodd"
       id="path18" />
    <path
       d="m 1134.74,331.745 c 0.09,0.083 0.18,0.166 0.27,0.25 -0.36,-0.334 -0.64,-0.667 -1,-1 0.18,0.25 0.45,0.5 0.73,0.75 z"
       fill="#ffffff"
       fill-rule="evenodd"
       id="path19" />
    <path
       d="m 1137,332.995 c 0.34,0.358 0.67,0.715 1,1 -0.19,-0.214 -0.38,-0.357 -0.52,-0.571 -0.19,-0.072 -0.33,-0.214 -0.48,-0.429 z"
       fill="#ffffff"
       fill-rule="evenodd"
       id="path20" />
    <path
       d="m 1221.59,424.805 c -2.14,-1.41 -3.68,-3.372 -4.51,-5.671 l -0.04,-0.153 h -0.2 l 0.04,0.153 c 0.8,2.299 2.37,4.261 4.51,5.671 2.14,1.41 4.65,2.176 7.29,2.176 h 0.16 c -2.6,-0.031 -5.14,-0.766 -7.25,-2.176 z"
       fill="#5dbca2"
       fill-rule="evenodd"
       id="path21" />
    <path
       d="m 989.003,418.514 v 44.484 H 872.069 v -22.856 h -0.066 v -20.303 c 0.653,4.3 4.376,7.565 8.882,7.565 4.964,0 8.98,-3.976 8.98,-8.89 0,-4.914 -4.016,-8.891 -8.98,-8.891 -4.865,0 -2.318,-5.625 5.682,-5.625 8.098,0 14.662,6.498 14.662,14.516 v 1.325 c 0.653,4.3 4.375,7.565 8.882,7.565 4.963,0 8.98,-3.976 8.98,-8.89 0,-4.914 -4.017,-8.891 -8.98,-8.891 -4.866,0 -2.319,-5.625 5.682,-5.625 8.098,0 14.661,6.498 14.661,14.516 v 1.325 c 0.653,4.3 4.376,7.565 8.882,7.565 4.964,0 8.98,-3.976 8.98,-8.89 0,-4.914 -4.016,-8.891 -8.98,-8.891 -4.865,0 -2.318,-5.625 5.682,-5.625 8.098,0 14.662,6.498 14.662,14.516 v 1.325 c 0.653,4.3 4.376,7.565 8.882,7.565 4.963,0 8.98,-3.976 8.98,-8.89 0,-4.914 -4.017,-8.891 -8.98,-8.891 -4.866,0 -2.319,-5.625 5.682,-5.625 8.196,-0.032 14.759,6.498 14.759,14.516 z"
       fill="#ffffff"
       fill-rule="evenodd"
       id="path22" />
    <path
       d="m 902.003,418.514 v 44.484 H 785.069 v -22.856 h -0.066 v -20.303 c 0.653,4.3 4.376,7.565 8.882,7.565 4.964,0 8.98,-3.976 8.98,-8.89 0,-4.914 -4.016,-8.891 -8.98,-8.891 -4.865,0 -2.318,-5.625 5.682,-5.625 8.098,0 14.662,6.498 14.662,14.516 v 1.325 c 0.653,4.3 4.375,7.565 8.882,7.565 4.963,0 8.98,-3.976 8.98,-8.89 0,-4.914 -4.017,-8.891 -8.98,-8.891 -4.866,0 -2.319,-5.625 5.682,-5.625 8.098,0 14.661,6.498 14.661,14.516 v 1.325 c 0.653,4.3 4.376,7.565 8.882,7.565 4.964,0 8.98,-3.976 8.98,-8.89 0,-4.914 -4.016,-8.891 -8.98,-8.891 -4.865,0 -2.318,-5.625 5.682,-5.625 8.098,0 14.662,6.498 14.662,14.516 v 1.325 c 0.653,4.3 4.376,7.565 8.882,7.565 4.963,0 8.98,-3.976 8.98,-8.89 0,-4.914 -4.017,-8.891 -8.98,-8.891 -4.866,0 -2.319,-5.625 5.682,-5.625 8.196,-0.032 14.759,6.498 14.759,14.516 z"
       fill="#ffffff"
       fill-rule="evenodd"
       id="path23" />
    <path
       d="m 785.003,418.514 v 44.484 H 669.068 v -22.856 h -0.065 v -20.303 c 0.648,4.3 4.339,7.565 8.806,7.565 4.921,0 8.903,-3.976 8.903,-8.89 0,-4.914 -3.982,-8.891 -8.903,-8.891 -4.824,0 -2.298,-5.625 5.634,-5.625 8.029,0 14.536,6.498 14.536,14.516 v 1.325 c 0.648,4.3 4.338,7.565 8.806,7.565 4.921,0 8.903,-3.976 8.903,-8.89 0,-4.914 -3.982,-8.891 -8.903,-8.891 -4.824,0 -2.299,-5.625 5.633,-5.625 8.029,0 14.537,6.498 14.537,14.516 v 1.325 c 0.647,4.3 4.338,7.565 8.806,7.565 4.921,0 8.903,-3.976 8.903,-8.89 0,-4.914 -3.982,-8.891 -8.903,-8.891 -4.824,0 -2.299,-5.625 5.633,-5.625 8.029,0 14.536,6.498 14.536,14.516 v 1.325 c 0.648,4.3 4.339,7.565 8.807,7.565 4.921,0 8.903,-3.976 8.903,-8.89 0,-4.914 -3.982,-8.891 -8.903,-8.891 -4.824,0 -2.299,-5.625 5.633,-5.625 8.126,-0.032 14.633,6.498 14.633,14.516 z"
       fill="#ffffff"
       fill-rule="evenodd"
       id="path24" />
    <path
       d="m 814.003,418.514 v 44.484 H 698.068 v -22.856 h -0.065 v -20.303 c 0.648,4.3 4.339,7.565 8.806,7.565 4.921,0 8.903,-3.976 8.903,-8.89 0,-4.914 -3.982,-8.891 -8.903,-8.891 -4.824,0 -2.298,-5.625 5.634,-5.625 8.029,0 14.536,6.498 14.536,14.516 v 1.325 c 0.648,4.3 4.338,7.565 8.806,7.565 4.921,0 8.903,-3.976 8.903,-8.89 0,-4.914 -3.982,-8.891 -8.903,-8.891 -4.824,0 -2.299,-5.625 5.633,-5.625 8.029,0 14.537,6.498 14.537,14.516 v 1.325 c 0.647,4.3 4.338,7.565 8.806,7.565 4.921,0 8.903,-3.976 8.903,-8.89 0,-4.914 -3.982,-8.891 -8.903,-8.891 -4.824,0 -2.299,-5.625 5.633,-5.625 8.029,0 14.536,6.498 14.536,14.516 v 1.325 c 0.648,4.3 4.339,7.565 8.807,7.565 4.921,0 8.903,-3.976 8.903,-8.89 0,-4.914 -3.982,-8.891 -8.903,-8.891 -4.824,0 -2.299,-5.625 5.633,-5.625 8.126,-0.032 14.633,6.498 14.633,14.516 z"
       fill="#ffffff"
       fill-rule="evenodd"
       id="path25" />
    <path
       d="m 727.003,418.514 v 44.484 H 610.069 v -22.856 h -0.066 v -20.303 c 0.653,4.3 4.376,7.565 8.882,7.565 4.964,0 8.98,-3.976 8.98,-8.89 0,-4.914 -4.016,-8.891 -8.98,-8.891 -4.865,0 -2.318,-5.625 5.682,-5.625 8.098,0 14.662,6.498 14.662,14.516 v 1.325 c 0.653,4.3 4.375,7.565 8.882,7.565 4.963,0 8.98,-3.976 8.98,-8.89 0,-4.914 -4.017,-8.891 -8.98,-8.891 -4.866,0 -2.319,-5.625 5.682,-5.625 8.098,0 14.661,6.498 14.661,14.516 v 1.325 c 0.653,4.3 4.376,7.565 8.882,7.565 4.964,0 8.98,-3.976 8.98,-8.89 0,-4.914 -4.016,-8.891 -8.98,-8.891 -4.865,0 -2.318,-5.625 5.682,-5.625 8.098,0 14.662,6.498 14.662,14.516 v 1.325 c 0.653,4.3 4.375,7.565 8.882,7.565 4.963,0 8.98,-3.976 8.98,-8.89 0,-4.914 -4.017,-8.891 -8.98,-8.891 -4.866,0 -2.319,-5.625 5.682,-5.625 8.196,-0.032 14.759,6.498 14.759,14.516 z"
       fill="#ffffff"
       fill-rule="evenodd"
       id="path26" />
    <path
       d="m 640.003,418.514 v 44.484 H 523.069 v -22.856 h -0.066 v -20.303 c 0.653,4.3 4.376,7.565 8.882,7.565 4.964,0 8.98,-3.976 8.98,-8.89 0,-4.914 -4.016,-8.891 -8.98,-8.891 -4.865,0 -2.318,-5.625 5.682,-5.625 8.098,0 14.662,6.498 14.662,14.516 v 1.325 c 0.653,4.3 4.375,7.565 8.882,7.565 4.963,0 8.98,-3.976 8.98,-8.89 0,-4.914 -4.017,-8.891 -8.98,-8.891 -4.866,0 -2.319,-5.625 5.682,-5.625 8.098,0 14.661,6.498 14.661,14.516 v 1.325 c 0.653,4.3 4.376,7.565 8.882,7.565 4.964,0 8.98,-3.976 8.98,-8.89 0,-4.914 -4.016,-8.891 -8.98,-8.891 -4.865,0 -2.318,-5.625 5.682,-5.625 8.098,0 14.662,6.498 14.662,14.516 v 1.325 c 0.653,4.3 4.376,7.565 8.882,7.565 4.963,0 8.98,-3.976 8.98,-8.89 0,-4.914 -4.017,-8.891 -8.98,-8.891 -4.866,0 -2.319,-5.625 5.682,-5.625 8.196,-0.032 14.759,6.498 14.759,14.516 z"
       fill="#ffffff"
       fill-rule="evenodd"
       id="path27" />
    <path
       d="m 523.003,418.514 v 44.484 H 407.068 v -22.856 h -0.065 v -20.303 c 0.648,4.3 4.339,7.565 8.806,7.565 4.921,0 8.903,-3.976 8.903,-8.89 0,-4.914 -3.982,-8.891 -8.903,-8.891 -4.824,0 -2.298,-5.625 5.634,-5.625 8.029,0 14.536,6.498 14.536,14.516 v 1.325 c 0.647,4.3 4.338,7.565 8.806,7.565 4.921,0 8.903,-3.976 8.903,-8.89 0,-4.914 -3.982,-8.891 -8.903,-8.891 -4.824,0 -2.299,-5.625 5.633,-5.625 8.029,0 14.537,6.498 14.537,14.516 v 1.325 c 0.647,4.3 4.338,7.565 8.806,7.565 4.921,0 8.903,-3.976 8.903,-8.89 0,-4.914 -3.982,-8.891 -8.903,-8.891 -4.824,0 -2.299,-5.625 5.633,-5.625 8.029,0 14.536,6.498 14.536,14.516 v 1.325 c 0.648,4.3 4.339,7.565 8.807,7.565 4.921,0 8.903,-3.976 8.903,-8.89 0,-4.914 -3.982,-8.891 -8.903,-8.891 -4.824,0 -2.299,-5.625 5.633,-5.625 8.126,-0.032 14.633,6.498 14.633,14.516 z"
       fill="#ffffff"
       fill-rule="evenodd"
       id="path28" />
    <path
       d="m 552.003,418.514 v 44.484 H 436.068 v -22.856 h -0.065 v -20.303 c 0.648,4.3 4.339,7.565 8.806,7.565 4.921,0 8.903,-3.976 8.903,-8.89 0,-4.914 -3.982,-8.891 -8.903,-8.891 -4.824,0 -2.298,-5.625 5.634,-5.625 8.029,0 14.536,6.498 14.536,14.516 v 1.325 c 0.647,4.3 4.338,7.565 8.806,7.565 4.921,0 8.903,-3.976 8.903,-8.89 0,-4.914 -3.982,-8.891 -8.903,-8.891 -4.824,0 -2.299,-5.625 5.633,-5.625 8.029,0 14.537,6.498 14.537,14.516 v 1.325 c 0.647,4.3 4.338,7.565 8.806,7.565 4.921,0 8.903,-3.976 8.903,-8.89 0,-4.914 -3.982,-8.891 -8.903,-8.891 -4.824,0 -2.299,-5.625 5.633,-5.625 8.029,0 14.536,6.498 14.536,14.516 v 1.325 c 0.648,4.3 4.339,7.565 8.807,7.565 4.921,0 8.903,-3.976 8.903,-8.89 0,-4.914 -3.982,-8.891 -8.903,-8.891 -4.824,0 -2.299,-5.625 5.633,-5.625 8.126,-0.032 14.633,6.498 14.633,14.516 z"
       fill="#ffffff"
       fill-rule="evenodd"
       id="path29" />
    <path
       d="m 465.003,418.514 v 44.484 H 348.069 v -22.856 h -0.066 v -20.303 c 0.653,4.3 4.376,7.565 8.882,7.565 4.964,0 8.98,-3.976 8.98,-8.89 0,-4.914 -4.016,-8.891 -8.98,-8.891 -4.865,0 -2.318,-5.625 5.682,-5.625 8.098,0 14.662,6.498 14.662,14.516 v 1.325 c 0.653,4.3 4.375,7.565 8.882,7.565 4.963,0 8.98,-3.976 8.98,-8.89 0,-4.914 -4.017,-8.891 -8.98,-8.891 -4.866,0 -2.319,-5.625 5.682,-5.625 8.098,0 14.661,6.498 14.661,14.516 v 1.325 c 0.653,4.3 4.376,7.565 8.882,7.565 4.964,0 8.98,-3.976 8.98,-8.89 0,-4.914 -4.016,-8.891 -8.98,-8.891 -4.865,0 -2.318,-5.625 5.682,-5.625 8.098,0 14.662,6.498 14.662,14.516 v 1.325 c 0.653,4.3 4.376,7.565 8.882,7.565 4.963,0 8.98,-3.976 8.98,-8.89 0,-4.914 -4.017,-8.891 -8.98,-8.891 -4.866,0 -2.319,-5.625 5.682,-5.625 8.196,-0.032 14.759,6.498 14.759,14.516 z"
       fill="#ffffff"
       fill-rule="evenodd"
       id="path30" />
    <path
       d="m 378.003,418.514 v 44.484 H 261.069 v -22.856 h -0.066 v -20.303 c 0.653,4.3 4.376,7.565 8.882,7.565 4.964,0 8.98,-3.976 8.98,-8.89 0,-4.914 -4.016,-8.891 -8.98,-8.891 -4.865,0 -2.318,-5.625 5.682,-5.625 8.098,0 14.662,6.498 14.662,14.516 v 1.325 c 0.653,4.3 4.375,7.565 8.882,7.565 4.963,0 8.98,-3.976 8.98,-8.89 0,-4.914 -4.017,-8.891 -8.98,-8.891 -4.866,0 -2.319,-5.625 5.682,-5.625 8.098,0 14.661,6.498 14.661,14.516 v 1.325 c 0.653,4.3 4.376,7.565 8.882,7.565 4.964,0 8.98,-3.976 8.98,-8.89 0,-4.914 -4.016,-8.891 -8.98,-8.891 -4.865,0 -2.318,-5.625 5.682,-5.625 8.098,0 14.662,6.498 14.662,14.516 v 1.325 c 0.653,4.3 4.376,7.565 8.882,7.565 4.963,0 8.98,-3.976 8.98,-8.89 0,-4.914 -4.017,-8.891 -8.98,-8.891 -4.866,0 -2.319,-5.625 5.682,-5.625 8.196,-0.032 14.759,6.498 14.759,14.516 z"
       fill="#ffffff"
       fill-rule="evenodd"
       id="path31" />
    <path
       d="m 261.003,418.514 v 44.484 H 144.069 v -22.856 h -0.066 v -20.303 c 0.653,4.3 4.376,7.565 8.882,7.565 4.964,0 8.98,-3.976 8.98,-8.89 0,-4.914 -4.016,-8.891 -8.98,-8.891 -4.865,0 -2.318,-5.625 5.682,-5.625 8.098,0 14.662,6.498 14.662,14.516 v 1.325 c 0.653,4.3 4.376,7.565 8.882,7.565 4.963,0 8.98,-3.976 8.98,-8.89 0,-4.914 -4.017,-8.891 -8.98,-8.891 -4.866,0 -2.319,-5.625 5.682,-5.625 8.098,0 14.661,6.498 14.661,14.516 v 1.325 c 0.653,4.3 4.376,7.565 8.882,7.565 4.964,0 8.98,-3.976 8.98,-8.89 0,-4.914 -4.016,-8.891 -8.98,-8.891 -4.865,0 -2.318,-5.625 5.682,-5.625 8.098,0 14.662,6.498 14.662,14.516 v 1.325 c 0.653,4.3 4.376,7.565 8.882,7.565 4.963,0 8.98,-3.976 8.98,-8.89 0,-4.914 -4.017,-8.891 -8.98,-8.891 -4.866,0 -2.319,-5.625 5.682,-5.625 8.196,-0.032 14.759,6.498 14.759,14.516 z"
       fill="#ffffff"
       fill-rule="evenodd"
       id="path32" />
    <path
       d="m 290.003,418.514 v 44.484 H 174.068 v -22.856 h -0.065 v -20.303 c 0.648,4.3 4.339,7.565 8.806,7.565 4.921,0 8.903,-3.976 8.903,-8.89 0,-4.914 -3.982,-8.891 -8.903,-8.891 -4.824,0 -2.298,-5.625 5.634,-5.625 8.029,0 14.536,6.498 14.536,14.516 v 1.325 c 0.647,4.3 4.338,7.565 8.806,7.565 4.921,0 8.903,-3.976 8.903,-8.89 0,-4.914 -3.982,-8.891 -8.903,-8.891 -4.824,0 -2.299,-5.625 5.633,-5.625 8.029,0 14.537,6.498 14.537,14.516 v 1.325 c 0.647,4.3 4.338,7.565 8.806,7.565 4.921,0 8.903,-3.976 8.903,-8.89 0,-4.914 -3.982,-8.891 -8.903,-8.891 -4.824,0 -2.299,-5.625 5.633,-5.625 8.029,0 14.536,6.498 14.536,14.516 v 1.325 c 0.648,4.3 4.339,7.565 8.807,7.565 4.921,0 8.903,-3.976 8.903,-8.89 0,-4.914 -3.982,-8.891 -8.903,-8.891 -4.824,0 -2.299,-5.625 5.633,-5.625 8.126,-0.032 14.633,6.498 14.633,14.516 z"
       fill="#ffffff"
       fill-rule="evenodd"
       id="path33" />
    <path
       d="m 203.003,418.514 v 44.484 H 86.0686 v -22.856 h -0.0653 v -20.303 c 0.6531,4.3 4.3757,7.565 8.8819,7.565 4.9634,0 8.9798,-3.976 8.9798,-8.89 0,-4.914 -4.0164,-8.891 -8.9798,-8.891 -4.8654,0 -2.3184,-5.625 5.6818,-5.625 8.098,0 14.662,6.498 14.662,14.516 v 1.325 c 0.653,4.3 4.376,7.565 8.882,7.565 4.963,0 8.98,-3.976 8.98,-8.89 0,-4.914 -4.017,-8.891 -8.98,-8.891 -4.866,0 -2.319,-5.625 5.682,-5.625 8.098,0 14.661,6.498 14.661,14.516 v 1.325 c 0.653,4.3 4.376,7.565 8.882,7.565 4.964,0 8.98,-3.976 8.98,-8.89 0,-4.914 -4.016,-8.891 -8.98,-8.891 -4.865,0 -2.318,-5.625 5.682,-5.625 8.098,0 14.662,6.498 14.662,14.516 v 1.325 c 0.653,4.3 4.376,7.565 8.882,7.565 4.963,0 8.98,-3.976 8.98,-8.89 0,-4.914 -4.017,-8.891 -8.98,-8.891 -4.866,0 -2.319,-5.625 5.682,-5.625 8.196,-0.032 14.759,6.498 14.759,14.516 z"
       fill="#ffffff"
       fill-rule="evenodd"
       id="path34" />
    <path
       d="m 115.003,418.514 v 44.484 H -0.931985 v -22.856 h -0.064776 v -20.303 c 0.647554,4.3 4.338341,7.565 8.806131,7.565 4.92103,0 8.90313,-3.976 8.90313,-8.89 0,-4.914 -3.9821,-8.891 -8.90313,-8.891 -4.82395,0 -2.29872,-5.625 5.63323,-5.625 8.029,0 14.5365,6.498 14.5365,14.516 v 1.325 c 0.6474,4.3 4.3382,7.565 8.806,7.565 4.921,0 8.9031,-3.976 8.9031,-8.89 0,-4.914 -3.9821,-8.891 -8.9031,-8.891 -4.824,0 -2.2986,-5.625 5.6332,-5.625 8.029,0 14.5365,6.498 14.5365,14.516 v 1.325 c 0.6475,4.3 4.3382,7.565 8.806,7.565 4.921,0 8.9032,-3.976 8.9032,-8.89 0,-4.914 -3.9822,-8.891 -8.9032,-8.891 -4.8239,0 -2.2986,-5.625 5.6332,-5.625 8.0291,0 14.5365,6.498 14.5365,14.516 v 1.325 c 0.6475,4.3 4.3382,7.565 8.806,7.565 4.921,0 8.9035,-3.976 8.9035,-8.89 0,-4.914 -3.9825,-8.891 -8.9035,-8.891 -4.8239,0 -2.2986,-5.625 5.6335,-5.625 8.126,-0.032 14.633,6.498 14.633,14.516 z"
       fill="#ffffff"
       fill-rule="evenodd"
       id="path35" />
    <rect
       x="1118"
       y="393"
       width="15"
       height="2"
       id="rect35" />
    <path
       d="m 1131,390.481 c 0,-1.37 1.11,-2.481 2.48,-2.481 h 1.04 c 1.37,0 2.48,1.111 2.48,2.481 v 9.038 c 0,1.37 -1.11,2.481 -2.48,2.481 h -1.04 c -1.37,0 -2.48,-1.111 -2.48,-2.481 z"
       stroke="#000000"
       stroke-width="1.66667"
       stroke-miterlimit="8"
       fill-rule="evenodd"
       id="path36" />
    <path
       d="m 1114,390.895 c 0,-1.599 1.3,-2.895 2.89,-2.895 h 1.22 c 1.59,0 2.89,1.296 2.89,2.895 v 8.21 c 0,1.599 -1.3,2.895 -2.89,2.895 h -1.22 c -1.59,0 -2.89,-1.296 -2.89,-2.895 z"
       stroke="#000000"
       stroke-width="1.66667"
       stroke-miterlimit="8"
       fill-rule="evenodd"
       id="path37" />
    <rect
       x="1119"
       y="390"
       width="14"
       height="6"
       id="rect37" />
    <path
       d="m 1129.26,374.527 c -1.05,-4.277 -4.83,-7.463 -9.35,-7.527 v 0.963 c 1.33,0.296 2.33,1.509 2.33,2.953 0,1.445 -1,2.658 -2.33,2.954 v 3.528 c 0,3.231 -2.55,5.87 -5.68,5.87 -0.1,0 -0.21,0 -0.31,-0.009 -1.23,-0.074 -2.39,-0.546 -3.31,-1.333 l -0.65,-0.528 v 1.379 c 0,3.362 1.63,6.324 4.12,8.13 v 8.583 c 0,1.389 1.11,2.51 2.47,2.51 h 1.27 c 1.37,0 2.47,-1.13 2.47,-2.51 v -4.305 h 10.46 v 4.305 c 0,1.389 1.11,2.51 2.47,2.51 h 1.27 c 1.37,0 2.47,-1.13 2.47,-3.158 V 384.49 c 0.01,-4.352 -3.23,-8.574 -7.7,-9.963 z m -4.97,18.426 c -0.06,0.065 -0.14,0.093 -0.22,0.093 -0.09,0 -0.17,-0.028 -0.23,-0.093 l -2.56,-2.602 c -0.13,-0.129 -0.13,-0.333 0,-0.462 0.13,-0.13 0.33,-0.13 0.46,0 l 2.55,2.601 c 0.13,0.121 0.13,0.334 0,0.463 z m 2.56,0 c -0.06,0.065 -0.15,0.093 -0.23,0.093 -0.08,0 -0.16,-0.028 -0.22,-0.093 l -2.56,-2.602 c -0.13,-0.129 -0.13,-0.333 0,-0.462 0.13,-0.13 0.33,-0.13 0.45,0 l 2.56,2.601 c 0.13,0.121 0.13,0.334 0,0.463 z m 2.57,0 c -0.07,0.065 -0.15,0.093 -0.23,0.093 -0.08,0 -0.16,-0.028 -0.23,-0.093 l -2.56,-2.602 c -0.13,-0.129 -0.13,-0.333 0,-0.462 0.12,-0.13 0.32,-0.13 0.45,0 l 2.56,2.601 c 0.12,0.121 0.12,0.334 0.01,0.463 z"
       fill="#47d45a"
       fill-rule="evenodd"
       id="path38" />
    <path
       d="m 1108.48,386.204 c 0.33,0.322 0.49,0.741 0.49,1.159 0,0.418 -0.16,0.837 -0.49,1.159 -0.65,0.636 -1.71,0.636 -2.37,0 l -2.85,-2.789 c -0.53,-0.522 -0.97,-1.106 -1.29,-1.734 l 4.61,0.349 z"
       fill="#47d45a"
       fill-rule="evenodd"
       id="path39" />
    <path
       d="m 1114.37,382.999 c -0.15,0 -0.3,-0.017 -0.45,-0.035 v 0 c 0.05,0 0.11,0.018 0.15,0.018 0.11,0.017 0.21,0.017 0.3,0.017 0.05,0 0.11,0 0.16,0 0.05,0 0.09,0 0.14,-0.017 0.03,0 0.07,0 0.1,-0.018 0.03,0 0.07,-0.017 0.11,-0.017 0.03,0 0.07,-0.017 0.12,-0.017 -0.2,0.034 -0.41,0.069 -0.63,0.069 z m -1.11,-0.207 v 0 c -0.03,-0.017 -0.06,-0.017 -0.08,-0.035 0.02,0 0.05,0.018 0.08,0.035 z m -0.3,-0.138 c 0.03,0.017 0.06,0.035 0.1,0.052 0.04,0.017 0.08,0.034 0.12,0.052 -0.09,-0.035 -0.18,-0.069 -0.25,-0.121 0.01,0 0.02,0.017 0.03,0.017 z m -0.33,-0.19 c 0.01,0 0.03,0.018 0.05,0.018 -0.04,-0.018 -0.09,-0.052 -0.13,-0.087 0.02,0.035 0.05,0.052 0.08,0.069 z m -0.15,-0.086 c 0.02,0.017 0.04,0.035 0.07,0.035 -0.04,-0.018 -0.08,-0.052 -0.11,-0.069 0,0.017 0.02,0.017 0.04,0.034 z m -0.32,-0.241 c 0.01,0 0.01,0.017 0.02,0.017 -0.03,-0.034 -0.07,-0.069 -0.11,-0.103 0.03,0.034 0.06,0.051 0.09,0.086 z m -0.12,-0.104 c 0.01,0 0.02,0.018 0.03,0.018 -0.02,-0.018 -0.05,-0.035 -0.07,-0.052 0.01,0.017 0.03,0.017 0.04,0.034 z"
       fill="#47d45a"
       fill-rule="evenodd"
       id="path40" />
    <path
       d="m 1119.63,368.937 v -2.441 c 0,-1.379 -1.1,-2.497 -2.45,-2.497 h -0.5 v 3.839 c 0,0.195 -0.17,0.354 -0.38,0.316 -0.15,-0.028 -0.26,-0.167 -0.26,-0.326 v -3.829 h -2.16 v 3.848 c 0,0.177 -0.15,0.326 -0.32,0.326 -0.18,0 -0.32,-0.149 -0.32,-0.326 v -3.848 h -0.63 c -1.36,0 -2.46,1.118 -2.46,2.497 v 1.677 l -7.08,7.201 c -1.69,1.723 -2.4,4.052 -2.13,6.298 h 4.51 c 0.16,-0.792 0.62,-1.528 1.36,-2.003 l 0.26,-0.168 v 1.574 c 0,0.69 -0.55,1.258 -1.24,1.258 h -7.25 c -0.32,0 -0.58,0.261 -0.58,0.587 0,0.307 0.24,0.568 0.54,0.587 l 8.14,0.484 c 1.54,0.121 2.86,-1.118 2.86,-2.692 v -2.935 c 0,0.019 0,0.047 0.01,0.066 0,0.009 0,0.018 0,0.028 0,0.018 0,0.046 0.01,0.065 0,0.037 0.01,0.074 0.02,0.121 0,0.028 0,0.056 0,0.074 0.02,0.103 0.04,0.205 0.06,0.299 0.01,0.055 0.03,0.111 0.04,0.167 0,0 0,0 0,0.01 0.04,0.167 0.09,0.335 0.15,0.503 0,0 0,0 0,0.009 0.02,0.047 0.04,0.102 0.06,0.149 0,0.009 0.01,0.019 0.01,0.028 0.01,0.047 0.03,0.093 0.06,0.149 0.03,0.056 0.05,0.093 0.06,0.14 0.01,0.009 0.01,0.028 0.02,0.037 0.02,0.047 0.05,0.084 0.07,0.13 0,0 0,0.01 0.01,0.01 0.02,0.046 0.05,0.102 0.08,0.149 0.02,0.037 0.04,0.074 0.06,0.112 0.01,0.018 0.02,0.028 0.03,0.046 0.03,0.037 0.05,0.084 0.07,0.121 0.03,0.047 0.06,0.084 0.09,0.121 0.02,0.038 0.04,0.066 0.07,0.103 0.02,0.019 0.03,0.046 0.04,0.065 0.03,0.037 0.06,0.075 0.09,0.103 0.01,0.028 0.04,0.055 0.06,0.074 0.05,0.056 0.1,0.112 0.15,0.168 0.02,0.028 0.05,0.056 0.07,0.084 0.01,0.009 0.02,0.018 0.03,0.028 0.22,0.223 0.45,0.428 0.7,0.614 0.03,0.019 0.06,0.047 0.09,0.066 0.04,0.028 0.08,0.046 0.11,0.074 0.12,0.084 0.25,0.159 0.38,0.233 0.03,0.019 0.05,0.028 0.08,0.047 0.02,0.009 0.05,0.018 0.07,0.028 0.03,0.018 0.07,0.037 0.11,0.055 0.07,0.038 0.15,0.066 0.23,0.103 0.04,0.009 0.08,0.028 0.11,0.037 0.04,0.019 0.09,0.028 0.12,0.047 0.09,0.028 0.16,0.056 0.24,0.074 0.02,0.01 0.05,0.01 0.07,0.019 v -3.605 c 0,-0.177 0.14,-0.326 0.32,-0.326 0.17,0 0.32,0.149 0.32,0.326 v 3.726 c 0.08,0.009 0.16,0.019 0.25,0.028 0.15,0.009 0.29,0.019 0.43,0.019 0.2,0 0.4,-0.01 0.59,-0.038 0,0 0.01,0 0.01,0 0.06,-0.009 0.13,-0.018 0.19,-0.028 0.04,-0.009 0.07,-0.009 0.11,-0.018 0.01,0 0.01,0 0.02,0 0.01,0 0.01,0 0.02,0 0.18,-0.037 0.36,-0.084 0.54,-0.14 v -3.54 c 0,-0.158 0.1,-0.298 0.25,-0.326 0.21,-0.037 0.39,0.121 0.39,0.317 v 3.298 c 1.7,-0.802 2.9,-2.534 2.95,-4.556 0,-0.009 0,-0.009 0,-0.019 0,-0.018 0,-0.037 0,-0.055 0,-0.047 0,-0.103 0,-0.15 v -4.136 c 1.29,0 2.34,-1.071 2.34,-2.385 -0.03,-1.304 -1.07,-2.375 -2.37,-2.375 z m -6.4,5.347 c -0.52,0 -0.96,-0.363 -1.08,-0.857 -0.02,-0.084 -0.03,-0.177 -0.03,-0.27 0,-0.624 0.5,-1.127 1.11,-1.127 0.49,0 0.91,0.326 1.05,0.773 0.04,0.112 0.06,0.233 0.06,0.354 0,0.615 -0.51,1.127 -1.11,1.127 z m 6.4,-1.807 v -2.31 c 0.62,0 1.13,0.512 1.13,1.155 0,0.642 -0.5,1.155 -1.13,1.155 z"
       fill="#47d45a"
       fill-rule="evenodd"
       id="path41" />
    <path
       d="m 1110.02,377.998 c 0.33,0.344 0.66,0.688 1,1 -0.34,-0.312 -0.67,-0.656 -1,-1 z"
       fill="#47d45a"
       fill-rule="evenodd"
       id="path42" />
    <path
       d="m 1110.01,378.999 c 0.29,0.333 0.58,0.666 1,1 -0.42,-0.334 -0.77,-0.667 -1,-1 z"
       fill="#47d45a"
       fill-rule="evenodd"
       id="path43" />
    <path
       d="m 1111.01,380.996 c 0.31,0.334 0.69,0.667 1,1 -0.16,-0.111 -0.31,-0.277 -0.39,-0.388 -0.15,-0.223 -0.38,-0.445 -0.61,-0.612 z"
       fill="#47d45a"
       fill-rule="evenodd"
       id="path44" />
    <path
       d="m 1111.74,381.745 c 0.09,0.083 0.18,0.166 0.27,0.25 -0.36,-0.334 -0.64,-0.667 -1,-1 0.18,0.25 0.45,0.5 0.73,0.75 z"
       fill="#47d45a"
       fill-rule="evenodd"
       id="path45" />
    <path
       d="m 1112,381.995 c 0.34,0.358 0.67,0.715 1,1 -0.19,-0.214 -0.38,-0.357 -0.52,-0.571 -0.19,-0.072 -0.33,-0.214 -0.48,-0.429 z"
       fill="#47d45a"
       fill-rule="evenodd"
       id="path46" />
    <path
       d="m 1076,418.514 v 44.484 H 960.068 v -22.856 h -0.065 v -20.303 c 0.648,4.3 4.339,7.565 8.806,7.565 4.921,0 8.903,-3.976 8.903,-8.89 0,-4.914 -3.982,-8.891 -8.903,-8.891 -4.824,0 -2.298,-5.625 5.634,-5.625 8.029,0 14.536,6.498 14.536,14.516 v 1.325 c 0.648,4.3 4.338,7.565 8.806,7.565 4.925,0 8.905,-3.976 8.905,-8.89 0,-4.914 -3.98,-8.891 -8.905,-8.891 -4.824,0 -2.299,-5.625 5.635,-5.625 8.03,0 14.53,6.498 14.53,14.516 v 1.325 c 0.65,4.3 4.34,7.565 8.81,7.565 4.92,0 8.9,-3.976 8.9,-8.89 0,-4.914 -3.98,-8.891 -8.9,-8.891 -4.82,0 -2.3,-5.625 5.63,-5.625 8.03,0 14.54,6.498 14.54,14.516 v 1.325 c 0.65,4.3 4.34,7.565 8.81,7.565 4.92,0 8.9,-3.976 8.9,-8.89 0,-4.914 -3.98,-8.891 -8.9,-8.891 -4.83,0 -2.3,-5.625 5.63,-5.625 8.13,-0.032 14.63,6.498 14.63,14.516 z"
       fill="#ffffff"
       fill-rule="evenodd"
       id="path47" />
    <rect
       x="1051"
       y="431"
       width="28"
       height="28"
       id="rect47" />
    <g
       clip-path="url(#clip1)"
       id="g51">
      <g
         clip-path="url(#clip2)"
         id="g50">
        <g
           clip-path="url(#clip3)"
           id="g49">
          <g
             clip-path="url(#clip4)"
             id="g48">
            <path
               d="m 1118.89,208.323 c -0.29,-0.681 -0.71,-1.264 -1.23,-1.781 -0.52,-0.519 -1.13,-0.907 -1.84,-1.199 -0.72,-0.291 -1.46,-0.421 -2.27,-0.421 -0.81,0 -1.56,0.13 -2.24,0.421 -0.71,0.292 -1.32,0.68 -1.84,1.199 -0.52,0.517 -0.94,1.1 -1.23,1.781 -0.29,0.679 -0.46,1.393 -0.46,2.17 0,0.777 0.17,1.49 0.46,2.169 0.29,0.681 0.71,1.263 1.23,1.781 0.52,0.519 1.13,0.907 1.84,1.198 0.72,0.293 1.46,0.421 2.24,0.421 0.81,0 1.55,-0.161 2.27,-0.421 0.71,-0.291 1.32,-0.679 1.84,-1.198 0.52,-0.518 0.94,-1.1 1.23,-1.781 0.29,-0.679 0.46,-1.392 0.46,-2.169 0,-0.746 -0.17,-1.491 -0.46,-2.17 z m 0,0 c -0.29,-0.681 -0.71,-1.264 -1.23,-1.781 -0.52,-0.519 -1.13,-0.907 -1.84,-1.199 -0.72,-0.291 -1.46,-0.421 -2.27,-0.421 -0.81,0 -1.56,0.13 -2.24,0.421 -0.71,0.292 -1.32,0.68 -1.84,1.199 -0.52,0.517 -0.94,1.1 -1.23,1.781 -0.29,0.679 -0.46,1.393 -0.46,2.17 0,0.777 0.17,1.49 0.46,2.169 0.29,0.681 0.71,1.263 1.23,1.781 0.52,0.519 1.13,0.907 1.84,1.198 0.72,0.293 1.46,0.421 2.24,0.421 0.81,0 1.55,-0.161 2.27,-0.421 0.71,-0.291 1.32,-0.679 1.84,-1.198 0.52,-0.518 0.94,-1.1 1.23,-1.781 0.29,-0.679 0.46,-1.392 0.46,-2.169 0,-0.746 -0.17,-1.491 -0.46,-2.17 z m -74.65,0.259 -1.78,5.02 h 3.47 z m 74.65,-0.259 c -0.29,-0.681 -0.71,-1.264 -1.23,-1.781 -0.52,-0.519 -1.13,-0.907 -1.84,-1.199 -0.72,-0.291 -1.46,-0.421 -2.27,-0.421 -0.81,0 -1.56,0.13 -2.24,0.421 -0.71,0.292 -1.32,0.68 -1.84,1.199 -0.52,0.517 -0.94,1.1 -1.23,1.781 -0.29,0.679 -0.46,1.393 -0.46,2.17 0,0.777 0.17,1.49 0.46,2.169 0.29,0.681 0.71,1.263 1.23,1.781 0.52,0.519 1.13,0.907 1.84,1.198 0.72,0.293 1.46,0.421 2.24,0.421 0.81,0 1.55,-0.161 2.27,-0.421 0.71,-0.291 1.32,-0.679 1.84,-1.198 0.52,-0.518 0.94,-1.1 1.23,-1.781 0.29,-0.679 0.46,-1.392 0.46,-2.169 0,-0.746 -0.17,-1.491 -0.46,-2.17 z m 0,0 c -0.29,-0.681 -0.71,-1.264 -1.23,-1.781 -0.52,-0.519 -1.13,-0.907 -1.84,-1.199 -0.72,-0.291 -1.46,-0.421 -2.27,-0.421 -0.81,0 -1.56,0.13 -2.24,0.421 -0.71,0.292 -1.32,0.68 -1.84,1.199 -0.52,0.517 -0.94,1.1 -1.23,1.781 -0.29,0.679 -0.46,1.393 -0.46,2.17 0,0.777 0.17,1.49 0.46,2.169 0.29,0.681 0.71,1.263 1.23,1.781 0.52,0.519 1.13,0.907 1.84,1.198 0.72,0.293 1.46,0.421 2.24,0.421 0.81,0 1.55,-0.161 2.27,-0.421 0.71,-0.291 1.32,-0.679 1.84,-1.198 0.52,-0.518 0.94,-1.1 1.23,-1.781 0.29,-0.679 0.46,-1.392 0.46,-2.169 0,-0.746 -0.17,-1.491 -0.46,-2.17 z m -74.65,0.259 -1.78,5.02 h 3.47 z M 1221.62,169.2 c -7.93,0 -10.46,5.635 -5.63,5.635 4.92,0 8.91,3.983 8.91,8.906 0,4.923 -3.99,8.906 -8.91,8.906 -4.47,0 -8.16,-3.303 -8.81,-7.578 v -1.328 c 0,-6.413 -4.15,-11.82 -9.88,-13.764 v 6.218 c 0,1.911 -0.68,3.66 -1.78,5.02 0.26,0.81 0.35,1.652 0.35,2.526 0,4.923 -3.98,8.906 -8.9,8.906 h -0.45 -1.85 c -2.56,0 -4.99,-0.777 -7.06,-2.3 -2.07,-1.489 -3.6,-3.562 -4.37,-5.99 l -0.04,-0.163 h -6.34 c -0.23,4.697 -4.15,8.453 -8.91,8.453 -4.47,0 -8.16,-3.303 -8.81,-7.578 v -0.875 h -11.3 c -0.23,4.697 -4.15,8.453 -8.91,8.453 -4.47,0 -8.16,-3.303 -8.81,-7.578 v -0.875 h -11.3 c -0.19,3.758 -2.69,6.867 -6.12,8.001 v 0 c -0.23,0.064 -0.45,0.128 -0.68,0.193 -0.13,0.033 -0.26,0.065 -0.42,0.098 -0.13,0.032 -0.26,0.065 -0.42,0.065 v 0 c -0.26,0.032 -0.55,0.065 -0.85,0.096 h -0.42 -0.03 c -4.47,0 -8.16,-3.303 -8.81,-7.578 v -0.907 c -3.79,-0.096 -7.54,-0.421 -11.3,-0.907 v 0.486 c 0,4.923 -3.98,8.906 -8.91,8.906 -4.47,0 -8.16,-3.303 -8.81,-7.578 v -1.328 c 0,-1.619 -0.25,-3.174 -0.74,-4.632 -0.26,-0.096 -0.49,-0.161 -0.75,-0.226 -3.65,-1.198 -6.12,-4.307 -6.41,-8.096 -1.97,-1.037 -4.24,-1.587 -6.64,-1.587 -7.96,0 -10.46,5.635 -5.63,5.635 4.92,0 8.9,3.983 8.9,8.906 0,4.923 -3.98,8.906 -8.9,8.906 -4.47,0 -8.16,-3.303 -8.81,-7.578 v -1.328 c 0,-8.032 -6.51,-14.541 -14.54,-14.541 -7.94,0 -10.46,5.635 -5.64,5.635 4.92,0 8.91,3.983 8.91,8.906 0,4.923 -3.99,8.906 -8.91,8.906 -4.47,0 -8.16,-3.303 -8.81,-7.578 v -1.328 c 0,-0.453 -0.03,-0.907 -0.06,-1.393 v 45.924 h 232.11 v -44.499 c 0.06,-8.031 -6.45,-14.573 -14.51,-14.573 z m -193.76,51.721 -0.52,-8.485 -2.98,8.485 h -4.96 l -3.17,-8.81 -0.58,8.81 h -4.96 l 1.36,-20.76 h 5.08 l 4.7,12.987 4.6,-12.987 h 5.08 l 1.27,20.76 z m 20.5,0 -0.85,-2.527 h -6.73 l -0.88,2.527 h -5.21 l 7.32,-20.727 h 4.66 l 6.93,20.727 z m 24.19,0 -0.52,-8.485 -2.98,8.485 h -4.96 l -3.17,-8.81 -0.58,8.81 h -4.96 l 1.36,-20.76 h 5.09 l 4.69,12.987 4.6,-12.987 h 5.09 l 1.26,20.76 z m 24.06,0 -0.52,-8.485 -2.98,8.485 h -4.95 l -3.14,-8.81 -0.59,8.81 h -4.95 l 1.36,-20.76 h 5.08 l 4.7,12.987 4.6,-12.987 h 5.08 l 1.27,20.76 z m 26.82,-6.38 c -0.55,1.263 -1.33,2.364 -2.3,3.304 -0.97,0.938 -2.11,1.683 -3.44,2.202 -1.29,0.55 -2.68,0.809 -4.17,0.809 -1.49,0 -2.89,-0.259 -4.18,-0.809 -1.3,-0.551 -2.43,-1.297 -3.4,-2.202 -0.97,-0.907 -1.72,-2.041 -2.3,-3.304 -0.58,-1.263 -0.84,-2.623 -0.84,-4.048 0,-1.426 0.29,-2.786 0.84,-4.049 0.55,-1.263 1.33,-2.364 2.3,-3.303 0.97,-0.94 2.1,-1.684 3.4,-2.203 1.29,-0.55 2.69,-0.809 4.18,-0.809 1.49,0 2.88,0.259 4.17,0.809 1.3,0.551 2.47,1.296 3.44,2.203 0.97,0.939 1.75,2.04 2.3,3.303 0.55,1.263 0.84,2.591 0.84,4.049 0,1.457 -0.26,2.785 -0.84,4.048 z m 13.73,-9.684 h -4.15 v 16.032 h -4.95 v -16.032 h -4.08 v -4.761 h 13.15 v 4.761 z m 17.84,16.064 h -4.95 v -7.838 h -6.19 v 7.838 h -4.95 v -20.727 h 4.95 v 8.129 h 6.19 v -8.129 h 4.95 z m -37.34,-14.347 c -0.52,-0.518 -1.13,-0.908 -1.84,-1.199 -0.72,-0.291 -1.46,-0.421 -2.27,-0.421 -0.81,0 -1.56,0.13 -2.24,0.421 -0.71,0.291 -1.32,0.681 -1.84,1.199 -0.52,0.517 -0.94,1.101 -1.23,1.781 -0.29,0.68 -0.46,1.392 -0.46,2.17 0,0.777 0.17,1.489 0.46,2.17 0.29,0.679 0.71,1.263 1.23,1.781 0.52,0.518 1.13,0.907 1.84,1.198 0.72,0.292 1.46,0.421 2.24,0.421 0.81,0 1.55,-0.161 2.27,-0.421 0.71,-0.291 1.32,-0.68 1.84,-1.198 0.52,-0.518 0.94,-1.102 1.23,-1.781 0.29,-0.681 0.46,-1.393 0.46,-2.17 0,-0.778 -0.17,-1.49 -0.46,-2.17 -0.29,-0.68 -0.71,-1.296 -1.23,-1.781 z m -75.2,7.06 h 3.47 l -1.69,-5.02 z m 76.43,-5.311 c -0.29,-0.681 -0.71,-1.264 -1.23,-1.781 -0.52,-0.519 -1.13,-0.907 -1.84,-1.199 -0.72,-0.291 -1.46,-0.421 -2.27,-0.421 -0.81,0 -1.56,0.13 -2.24,0.421 -0.71,0.292 -1.32,0.68 -1.84,1.199 -0.52,0.517 -0.94,1.1 -1.23,1.781 -0.29,0.679 -0.46,1.393 -0.46,2.17 0,0.777 0.17,1.49 0.46,2.169 0.29,0.681 0.71,1.263 1.23,1.781 0.52,0.519 1.13,0.907 1.84,1.198 0.72,0.293 1.46,0.421 2.24,0.421 0.81,0 1.55,-0.161 2.27,-0.421 0.71,-0.291 1.32,-0.679 1.84,-1.198 0.52,-0.518 0.94,-1.1 1.23,-1.781 0.29,-0.679 0.46,-1.392 0.46,-2.169 0,-0.746 -0.17,-1.491 -0.46,-2.17 z m 0,0 c -0.29,-0.681 -0.71,-1.264 -1.23,-1.781 -0.52,-0.519 -1.13,-0.907 -1.84,-1.199 -0.72,-0.291 -1.46,-0.421 -2.27,-0.421 -0.81,0 -1.56,0.13 -2.24,0.421 -0.71,0.292 -1.32,0.68 -1.84,1.199 -0.52,0.517 -0.94,1.1 -1.23,1.781 -0.29,0.679 -0.46,1.393 -0.46,2.17 0,0.777 0.17,1.49 0.46,2.169 0.29,0.681 0.71,1.263 1.23,1.781 0.52,0.519 1.13,0.907 1.84,1.198 0.72,0.293 1.46,0.421 2.24,0.421 0.81,0 1.55,-0.161 2.27,-0.421 0.71,-0.291 1.32,-0.679 1.84,-1.198 0.52,-0.518 0.94,-1.1 1.23,-1.781 0.29,-0.679 0.46,-1.392 0.46,-2.169 0,-0.746 -0.17,-1.491 -0.46,-2.17 z m 0,0 c -0.29,-0.681 -0.71,-1.264 -1.23,-1.781 -0.52,-0.519 -1.13,-0.907 -1.84,-1.199 -0.72,-0.291 -1.46,-0.421 -2.27,-0.421 -0.81,0 -1.56,0.13 -2.24,0.421 -0.71,0.292 -1.32,0.68 -1.84,1.199 -0.52,0.517 -0.94,1.1 -1.23,1.781 -0.29,0.679 -0.46,1.393 -0.46,2.17 0,0.777 0.17,1.49 0.46,2.169 0.29,0.681 0.71,1.263 1.23,1.781 0.52,0.519 1.13,0.907 1.84,1.198 0.72,0.293 1.46,0.421 2.24,0.421 0.81,0 1.55,-0.161 2.27,-0.421 0.71,-0.291 1.32,-0.679 1.84,-1.198 0.52,-0.518 0.94,-1.1 1.23,-1.781 0.29,-0.679 0.46,-1.392 0.46,-2.169 0,-0.746 -0.17,-1.491 -0.46,-2.17 z m 0,0 c -0.29,-0.681 -0.71,-1.264 -1.23,-1.781 -0.52,-0.519 -1.13,-0.907 -1.84,-1.199 -0.72,-0.291 -1.46,-0.421 -2.27,-0.421 -0.81,0 -1.56,0.13 -2.24,0.421 -0.71,0.292 -1.32,0.68 -1.84,1.199 -0.52,0.517 -0.94,1.1 -1.23,1.781 -0.29,0.679 -0.46,1.393 -0.46,2.17 0,0.777 0.17,1.49 0.46,2.169 0.29,0.681 0.71,1.263 1.23,1.781 0.52,0.519 1.13,0.907 1.84,1.198 0.72,0.293 1.46,0.421 2.24,0.421 0.81,0 1.55,-0.161 2.27,-0.421 0.71,-0.291 1.32,-0.679 1.84,-1.198 0.52,-0.518 0.94,-1.1 1.23,-1.781 0.29,-0.679 0.46,-1.392 0.46,-2.169 0,-0.746 -0.17,-1.491 -0.46,-2.17 z"
               stroke="#ffffff"
               stroke-width="0.323837"
               fill="#ffffff"
               id="path48"
               transform="matrix(1.0048,0,0,1,38.1621,234.8)" />
          </g>
        </g>
      </g>
    </g>
    <text
       fill="#47d45a"
       font-family="'Courier New', 'Courier New_MSFontService', sans-serif"
       font-weight="700"
       font-size="21px"
       transform="translate(1213.06,453)"
       id="text51">LITE</text>
    <rect
       x="1029"
       y="456"
       width="250.18527"
       height="5.0435729"
       fill="#ffffff"
       id="rect51"
       style="stroke-width:0.596865" />
  </g>
</svg>
